<?xml version="1.0" standalone="no"?><!DOCTYPE svg PUBLIC "-//W3C//DTD SVG 1.1//EN" "http://www.w3.org/Graphics/SVG/1.1/DTD/svg11.dtd"><svg t="1735101525272" class="icon" viewBox="0 0 1024 1024" version="1.1" xmlns="http://www.w3.org/2000/svg" p-id="3839" xmlns:xlink="http://www.w3.org/1999/xlink" width="200" height="200"><path d="M930.444 822.711l-120.088-119.981c56.367-77.572 49.016-184.981-19.073-252.643-36.974-36.974-85.99-57.114-138.097-57.114-52.105 0-101.121 20.458-138.097 57.114-36.335 36.974-56.687 85.99-56.687 138.097 0 52.105 20.458 101.121 57.114 138.097 36.974 36.974 85.99 57.114 138.097 57.114 41.237 0 80.663-13 114.548-38.041l119.981 119.662c5.647 5.647 13 8.844 21.098 8.844s15.557-3.197 21.098-8.844c11.721-11.615 11.721-30.582 0.106-42.303zM749.406 684.082c-51.146 50.72-140.653 50.72-191.693 0-52.852-52.852-52.852-138.523 0-191.374 25.679-25.679 59.564-39.426 95.9-39.426s70.114 14.066 95.9 39.426c52.745 52.852 52.745 138.523-0.106 191.374z" p-id="3840"></path><path d="M593.195 891.546h-384.453c-42.196 0-76.401-34.311-76.401-76.401v-616.424c0-42.196 34.311-76.401 76.401-76.401h433.362c42.196 0 76.401 34.311 76.401 76.401v125.416c0 17.049 13.852 30.901 30.901 30.901s30.901-13.852 30.901-30.901v-125.416c0-76.187-62.015-138.203-138.203-138.203h-433.362c-76.187 0-138.203 62.015-138.203 138.203v616.424c0 76.187 62.015 138.203 138.203 138.203h384.453c17.049 0 30.901-13.852 30.901-30.901s-13.852-30.901-30.901-30.901z" p-id="3841"></path><path d="M538.426 293.129c0-15.663-12.787-28.45-28.45-28.45h-278.856c-15.663 0-28.45 12.787-28.45 28.45s12.787 28.45 28.45 28.45h278.75c15.77 0 28.557-12.893 28.557-28.45zM430.272 450.725c0-15.663-12.787-28.45-28.45-28.45h-170.702c-15.663 0-28.45 12.787-28.45 28.45s12.787 28.45 28.45 28.45h170.702c15.663 0 28.45-12.787 28.45-28.45zM231.119 579.977c-15.663 0-28.45 12.787-28.45 28.45s12.787 28.45 28.45 28.45h92.917c15.663 0 28.45-12.787 28.45-28.45s-12.787-28.45-28.45-28.45h-92.917z" p-id="3842"></path></svg>